<?xml version="1.0" encoding="UTF-8" standalone="no"?>
<!DOCTYPE svg PUBLIC "-//W3C//DTD SVG 1.1//EN"
 "http://www.w3.org/Graphics/SVG/1.1/DTD/svg11.dtd">
<!-- Generated by graphviz version 14.1.5 (0)
 -->
<!-- Title: C Pages: 1 -->
<svg width="181pt" height="342pt"
 viewBox="0.00 0.00 181.00 342.00" xmlns="http://www.w3.org/2000/svg" xmlns:xlink="http://www.w3.org/1999/xlink">
<g id="graph0" class="graph" transform="scale(1 1) rotate(0) translate(4 337.5)">
<title>C</title>
<!-- inspect -->
<g id="node1" class="node">
<title>inspect</title>
<path fill="white" stroke="#004d40" d="M123.25,-333.5C123.25,-333.5 49.5,-333.5 49.5,-333.5 43.5,-333.5 37.5,-327.5 37.5,-321.5 37.5,-321.5 37.5,-301.5 37.5,-301.5 37.5,-295.5 43.5,-289.5 49.5,-289.5 49.5,-289.5 123.25,-289.5 123.25,-289.5 129.25,-289.5 135.25,-295.5 135.25,-301.5 135.25,-301.5 135.25,-321.5 135.25,-321.5 135.25,-327.5 129.25,-333.5 123.25,-333.5"/>
<text xml:space="preserve" text-anchor="middle" x="86.38" y="-318.1" font-family="Jost" font-size="12.00" fill="#004d40">package inspect</text>
<text xml:space="preserve" text-anchor="middle" x="86.38" y="-300.1" font-family="Jost" font-size="12.00" fill="#004d40">(no claim)</text>
</g>
<!-- plan -->
<g id="node2" class="node">
<title>plan</title>
<path fill="#f1db4b" stroke="#004d40" d="M160.75,-237C160.75,-237 12,-237 12,-237 6,-237 0,-231 0,-225 0,-225 0,-205 0,-205 0,-199 6,-193 12,-193 12,-193 160.75,-193 160.75,-193 166.75,-193 172.75,-199 172.75,-205 172.75,-205 172.75,-225 172.75,-225 172.75,-231 166.75,-237 160.75,-237"/>
<text xml:space="preserve" text-anchor="middle" x="86.38" y="-221.6" font-family="Jost" font-size="12.00" fill="#004d40">package plan / package bump</text>
<text xml:space="preserve" text-anchor="middle" x="86.38" y="-203.6" font-family="Jost" font-size="12.00" fill="#004d40">→ resolves</text>
</g>
<!-- inspect&#45;&gt;plan -->
<g id="edge1" class="edge">
<title>inspect&#45;&gt;plan</title>
<path fill="none" stroke="#004d40" stroke-dasharray="5,2" d="M86.38,-289.06C86.38,-277.09 86.38,-261.95 86.38,-248.56"/>
<polygon fill="#004d40" stroke="#004d40" points="89.88,-248.87 86.38,-238.87 82.88,-248.87 89.88,-248.87"/>
<text xml:space="preserve" text-anchor="middle" x="104.75" y="-261.05" font-family="Jost" font-size="11.00">no rung</text>
</g>
<!-- build -->
<g id="node3" class="node">
<title>build</title>
<path fill="#004d40" stroke="#004d40" d="M116.88,-140.5C116.88,-140.5 55.88,-140.5 55.88,-140.5 49.88,-140.5 43.88,-134.5 43.88,-128.5 43.88,-128.5 43.88,-108.5 43.88,-108.5 43.88,-102.5 49.88,-96.5 55.88,-96.5 55.88,-96.5 116.88,-96.5 116.88,-96.5 122.88,-96.5 128.88,-102.5 128.88,-108.5 128.88,-108.5 128.88,-128.5 128.88,-128.5 128.88,-134.5 122.88,-140.5 116.88,-140.5"/>
<text xml:space="preserve" text-anchor="middle" x="86.38" y="-125.1" font-family="Jost" font-size="12.00" fill="white">campaign run</text>
<text xml:space="preserve" text-anchor="middle" x="86.38" y="-107.1" font-family="Jost" font-size="12.00" fill="white">→ builds</text>
</g>
<!-- plan&#45;&gt;build -->
<g id="edge2" class="edge">
<title>plan&#45;&gt;build</title>
<path fill="none" stroke="#004d40" d="M86.38,-192.56C86.38,-180.59 86.38,-165.45 86.38,-152.06"/>
<polygon fill="#004d40" stroke="#004d40" points="89.88,-152.37 86.38,-142.37 82.88,-152.37 89.88,-152.37"/>
<text xml:space="preserve" text-anchor="middle" x="128" y="-164.55" font-family="Jost" font-size="11.00">target + EasyBuild</text>
</g>
<!-- verify -->
<g id="node4" class="node">
<title>verify</title>
<path fill="#ff655d" stroke="#004d40" d="M157.38,-44C157.38,-44 15.38,-44 15.38,-44 9.38,-44 3.38,-38 3.38,-32 3.38,-32 3.38,-12 3.38,-12 3.38,-6 9.38,0 15.38,0 15.38,0 157.38,0 157.38,0 163.38,0 169.38,-6 169.38,-12 169.38,-12 169.38,-32 169.38,-32 169.38,-38 163.38,-44 157.38,-44"/>
<text xml:space="preserve" text-anchor="middle" x="86.38" y="-28.6" font-family="Jost" font-size="12.00" fill="white">profile verification commands</text>
<text xml:space="preserve" text-anchor="middle" x="86.38" y="-10.6" font-family="Jost" font-size="12.00" fill="white">→ binary&#45;verified</text>
</g>
<!-- build&#45;&gt;verify -->
<g id="edge3" class="edge">
<title>build&#45;&gt;verify</title>
<path fill="none" stroke="#004d40" d="M86.38,-96.06C86.38,-84.09 86.38,-68.95 86.38,-55.56"/>
<polygon fill="#004d40" stroke="#004d40" points="89.88,-55.87 86.38,-45.87 82.88,-55.87 89.88,-55.87"/>
<text xml:space="preserve" text-anchor="middle" x="123.88" y="-68.05" font-family="Jost" font-size="11.00">declared checks</text>
</g>
</g>
</svg>
