<?xml version="1.0" encoding="UTF-8" standalone="no"?>
<!DOCTYPE svg PUBLIC "-//W3C//DTD SVG 1.1//EN"
 "http://www.w3.org/Graphics/SVG/1.1/DTD/svg11.dtd">
<!-- Generated by graphviz version 14.1.5 (0)
 -->
<!-- Title: S Pages: 1 -->
<svg width="721pt" height="192pt"
 viewBox="0.00 0.00 721.00 192.00" xmlns="http://www.w3.org/2000/svg" xmlns:xlink="http://www.w3.org/1999/xlink">
<g id="graph0" class="graph" transform="scale(1 1) rotate(0) translate(4 187.5)">
<title>S</title>
<!-- package -->
<g id="node1" class="node">
<title>package</title>
<path fill="#f1db4b" stroke="#004d40" d="M101.5,-44.5C101.5,-44.5 12,-44.5 12,-44.5 6,-44.5 0,-38.5 0,-32.5 0,-32.5 0,-15.5 0,-15.5 0,-9.5 6,-3.5 12,-3.5 12,-3.5 101.5,-3.5 101.5,-3.5 107.5,-3.5 113.5,-9.5 113.5,-15.5 113.5,-15.5 113.5,-32.5 113.5,-32.5 113.5,-38.5 107.5,-44.5 101.5,-44.5"/>
<text xml:space="preserve" text-anchor="middle" x="56.75" y="-30.05" font-family="Jost" font-size="11.00" fill="#004d40">package</text>
<text xml:space="preserve" text-anchor="middle" x="56.75" y="-13.55" font-family="Jost" font-size="11.00" fill="#004d40">inspect · plan · bump</text>
</g>
<!-- recipe -->
<g id="node2" class="node">
<title>recipe</title>
<path fill="white" stroke="#004d40" d="M242,-69.5C242,-69.5 161.5,-69.5 161.5,-69.5 155.5,-69.5 149.5,-63.5 149.5,-57.5 149.5,-57.5 149.5,-40.5 149.5,-40.5 149.5,-34.5 155.5,-28.5 161.5,-28.5 161.5,-28.5 242,-28.5 242,-28.5 248,-28.5 254,-34.5 254,-40.5 254,-40.5 254,-57.5 254,-57.5 254,-63.5 248,-69.5 242,-69.5"/>
<text xml:space="preserve" text-anchor="middle" x="201.75" y="-55.05" font-family="Jost" font-size="11.00" fill="#004d40">recipe</text>
<text xml:space="preserve" text-anchor="middle" x="201.75" y="-38.55" font-family="Jost" font-size="11.00" fill="#004d40">check · lint · format</text>
</g>
<!-- package&#45;&gt;recipe -->
<g id="edge1" class="edge">
<title>package&#45;&gt;recipe</title>
<path fill="none" stroke="#004d40" d="M113.86,-33.81C121.73,-35.18 129.86,-36.61 137.85,-38"/>
<polygon fill="#004d40" stroke="#004d40" points="137.06,-41.42 147.51,-39.69 138.26,-34.52 137.06,-41.42"/>
</g>
<!-- mcp -->
<g id="node6" class="node">
<title>mcp</title>
<path fill="#004d40" stroke="#004d40" d="M700.5,-96.5C700.5,-96.5 659.75,-96.5 659.75,-96.5 653.75,-96.5 647.75,-90.5 647.75,-84.5 647.75,-84.5 647.75,-67.5 647.75,-67.5 647.75,-61.5 653.75,-55.5 659.75,-55.5 659.75,-55.5 700.5,-55.5 700.5,-55.5 706.5,-55.5 712.5,-61.5 712.5,-67.5 712.5,-67.5 712.5,-84.5 712.5,-84.5 712.5,-90.5 706.5,-96.5 700.5,-96.5"/>
<text xml:space="preserve" text-anchor="middle" x="680.12" y="-82.05" font-family="Jost" font-size="11.00" fill="white">mcp stdio</text>
<text xml:space="preserve" text-anchor="middle" x="680.12" y="-65.55" font-family="Jost" font-size="11.00" fill="white">eb_* tools</text>
</g>
<!-- package&#45;&gt;mcp -->
<g id="edge5" class="edge">
<title>package&#45;&gt;mcp</title>
<path fill="none" stroke="#004d40" stroke-dasharray="5,2" d="M113.77,-16.04C167.86,-9.06 252.11,0 325.5,0 325.5,0 325.5,0 433.88,0 508.06,0 589.43,-32.12 637.3,-54.59"/>
<polygon fill="#004d40" stroke="#004d40" points="635.67,-57.69 646.2,-58.86 638.69,-51.38 635.67,-57.69"/>
</g>
<!-- stack -->
<g id="node3" class="node">
<title>stack</title>
<path fill="white" stroke="#004d40" d="M351,-107.5C351,-107.5 302,-107.5 302,-107.5 296,-107.5 290,-101.5 290,-95.5 290,-95.5 290,-78.5 290,-78.5 290,-72.5 296,-66.5 302,-66.5 302,-66.5 351,-66.5 351,-66.5 357,-66.5 363,-72.5 363,-78.5 363,-78.5 363,-95.5 363,-95.5 363,-101.5 357,-107.5 351,-107.5"/>
<text xml:space="preserve" text-anchor="middle" x="326.5" y="-93.05" font-family="Jost" font-size="11.00" fill="#004d40">stack</text>
<text xml:space="preserve" text-anchor="middle" x="326.5" y="-76.55" font-family="Jost" font-size="11.00" fill="#004d40">solve · sbom</text>
</g>
<!-- recipe&#45;&gt;stack -->
<g id="edge2" class="edge">
<title>recipe&#45;&gt;stack</title>
<path fill="none" stroke="#004d40" d="M254.45,-65.01C262.56,-67.51 270.89,-70.1 278.87,-72.57"/>
<polygon fill="#004d40" stroke="#004d40" points="277.83,-75.91 288.42,-75.52 279.9,-69.22 277.83,-75.91"/>
</g>
<!-- recipe&#45;&gt;mcp -->
<g id="edge6" class="edge">
<title>recipe&#45;&gt;mcp</title>
<path fill="none" stroke="#004d40" stroke-dasharray="5,2" d="M254.36,-51.44C285.77,-52.96 326.7,-55 363,-57 460.53,-62.37 574.94,-69.43 635.83,-73.26"/>
<polygon fill="#004d40" stroke="#004d40" points="635.56,-76.75 645.76,-73.88 636,-69.76 635.56,-76.75"/>
</g>
<!-- target -->
<g id="node4" class="node">
<title>target</title>
<path fill="white" stroke="#004d40" d="M454.75,-145.5C454.75,-145.5 411,-145.5 411,-145.5 405,-145.5 399,-139.5 399,-133.5 399,-133.5 399,-116.5 399,-116.5 399,-110.5 405,-104.5 411,-104.5 411,-104.5 454.75,-104.5 454.75,-104.5 460.75,-104.5 466.75,-110.5 466.75,-116.5 466.75,-116.5 466.75,-133.5 466.75,-133.5 466.75,-139.5 460.75,-145.5 454.75,-145.5"/>
<text xml:space="preserve" text-anchor="middle" x="432.88" y="-131.05" font-family="Jost" font-size="11.00" fill="#004d40">target</text>
<text xml:space="preserve" text-anchor="middle" x="432.88" y="-114.55" font-family="Jost" font-size="11.00" fill="#004d40">list · doctor</text>
</g>
<!-- stack&#45;&gt;target -->
<g id="edge3" class="edge">
<title>stack&#45;&gt;target</title>
<path fill="none" stroke="#004d40" d="M363.42,-100.08C371.37,-102.97 379.89,-106.07 388.12,-109.07"/>
<polygon fill="#004d40" stroke="#004d40" points="386.68,-112.27 397.27,-112.4 389.07,-105.69 386.68,-112.27"/>
</g>
<!-- stack&#45;&gt;mcp -->
<g id="edge7" class="edge">
<title>stack&#45;&gt;mcp</title>
<path fill="none" stroke="#004d40" stroke-dasharray="5,2" d="M363.48,-85.87C428.67,-83.84 566.05,-79.54 636.09,-77.35"/>
<polygon fill="#004d40" stroke="#004d40" points="636.15,-80.85 646.03,-77.04 635.93,-73.85 636.15,-80.85"/>
</g>
<!-- campaign -->
<g id="node5" class="node">
<title>campaign</title>
<path fill="#ff655d" stroke="#004d40" d="M599.75,-183.5C599.75,-183.5 514.75,-183.5 514.75,-183.5 508.75,-183.5 502.75,-177.5 502.75,-171.5 502.75,-171.5 502.75,-154.5 502.75,-154.5 502.75,-148.5 508.75,-142.5 514.75,-142.5 514.75,-142.5 599.75,-142.5 599.75,-142.5 605.75,-142.5 611.75,-148.5 611.75,-154.5 611.75,-154.5 611.75,-171.5 611.75,-171.5 611.75,-177.5 605.75,-183.5 599.75,-183.5"/>
<text xml:space="preserve" text-anchor="middle" x="557.25" y="-169.05" font-family="Jost" font-size="11.00" fill="white">campaign</text>
<text xml:space="preserve" text-anchor="middle" x="557.25" y="-152.55" font-family="Jost" font-size="11.00" fill="white">run · status · finding</text>
</g>
<!-- target&#45;&gt;campaign -->
<g id="edge4" class="edge">
<title>target&#45;&gt;campaign</title>
<path fill="none" stroke="#004d40" d="M466.99,-135.28C474.66,-137.66 483.07,-140.28 491.58,-142.92"/>
<polygon fill="#004d40" stroke="#004d40" points="490.31,-146.19 500.9,-145.81 492.39,-139.51 490.31,-146.19"/>
</g>
<!-- target&#45;&gt;mcp -->
<g id="edge8" class="edge">
<title>target&#45;&gt;mcp</title>
<path fill="none" stroke="#004d40" stroke-dasharray="5,2" d="M467.01,-118.59C502.75,-111.65 561.31,-100.2 611.75,-90 619.63,-88.41 628.02,-86.68 636.11,-85.01"/>
<polygon fill="#004d40" stroke="#004d40" points="636.7,-88.46 645.78,-83 635.28,-81.61 636.7,-88.46"/>
</g>
<!-- campaign&#45;&gt;mcp -->
<g id="edge9" class="edge">
<title>campaign&#45;&gt;mcp</title>
<path fill="none" stroke="#004d40" stroke-dasharray="5,2" d="M591.06,-142.11C597.96,-137.56 605.15,-132.7 611.75,-128 622.35,-120.46 633.63,-111.95 643.87,-104.04"/>
<polygon fill="#004d40" stroke="#004d40" points="645.99,-106.82 651.73,-97.91 641.69,-101.3 645.99,-106.82"/>
</g>
</g>
</svg>
