<?xml version="1.0" encoding="UTF-8" standalone="no"?>
<!DOCTYPE svg PUBLIC "-//W3C//DTD SVG 1.1//EN"
 "http://www.w3.org/Graphics/SVG/1.1/DTD/svg11.dtd">
<!-- Generated by graphviz version 14.1.5 (0)
 -->
<!-- Title: P Pages: 1 -->
<svg width="1153pt" height="114pt"
 viewBox="0.00 0.00 1153.00 114.00" xmlns="http://www.w3.org/2000/svg" xmlns:xlink="http://www.w3.org/1999/xlink">
<g id="graph0" class="graph" transform="scale(1 1) rotate(0) translate(4 110)">
<title>P</title>
<!-- foreign -->
<g id="node1" class="node">
<title>foreign</title>
<path fill="white" stroke="#004d40" d="M109,-106C109,-106 12,-106 12,-106 6,-106 0,-100 0,-94 0,-94 0,-74 0,-74 0,-68 6,-62 12,-62 12,-62 109,-62 109,-62 115,-62 121,-68 121,-74 121,-74 121,-94 121,-94 121,-100 115,-106 109,-106"/>
<text xml:space="preserve" text-anchor="middle" x="60.5" y="-90.6" font-family="Jost" font-size="12.00" fill="#004d40">conda&#45;forge / Spack</text>
<text xml:space="preserve" text-anchor="middle" x="60.5" y="-72.6" font-family="Jost" font-size="12.00" fill="#004d40">syntax adapters</text>
</g>
<!-- plan -->
<g id="node3" class="node">
<title>plan</title>
<path fill="#f1db4b" stroke="#004d40" d="M252.5,-75C252.5,-75 169,-75 169,-75 163,-75 157,-69 157,-63 157,-63 157,-43 157,-43 157,-37 163,-31 169,-31 169,-31 252.5,-31 252.5,-31 258.5,-31 264.5,-37 264.5,-43 264.5,-43 264.5,-63 264.5,-63 264.5,-69 258.5,-75 252.5,-75"/>
<text xml:space="preserve" text-anchor="middle" x="210.75" y="-59.6" font-family="Jost" font-size="12.00" fill="#004d40">PackagePlan</text>
<text xml:space="preserve" text-anchor="middle" x="210.75" y="-41.6" font-family="Jost" font-size="12.00" fill="#004d40">package.plan.json</text>
</g>
<!-- foreign&#45;&gt;plan -->
<g id="edge1" class="edge">
<title>foreign&#45;&gt;plan</title>
<path fill="none" stroke="#004d40" d="M121.37,-71.48C129.35,-69.81 137.55,-68.1 145.59,-66.42"/>
<polygon fill="#004d40" stroke="#004d40" points="146.27,-69.85 155.34,-64.38 144.83,-63 146.27,-69.85"/>
</g>
<!-- easybuild -->
<g id="node2" class="node">
<title>easybuild</title>
<path fill="white" stroke="#004d40" d="M98.12,-44C98.12,-44 22.88,-44 22.88,-44 16.88,-44 10.88,-38 10.88,-32 10.88,-32 10.88,-12 10.88,-12 10.88,-6 16.88,0 22.88,0 22.88,0 98.12,0 98.12,0 104.12,0 110.12,-6 110.12,-12 110.12,-12 110.12,-32 110.12,-32 110.12,-38 104.12,-44 98.12,-44"/>
<text xml:space="preserve" text-anchor="middle" x="60.5" y="-28.6" font-family="Jost" font-size="12.00" fill="#004d40">EasyBuild recipe</text>
<text xml:space="preserve" text-anchor="middle" x="60.5" y="-10.6" font-family="Jost" font-size="12.00" fill="#004d40">adapter</text>
</g>
<!-- easybuild&#45;&gt;plan -->
<g id="edge2" class="edge">
<title>easybuild&#45;&gt;plan</title>
<path fill="none" stroke="#004d40" d="M110.45,-32.24C121.64,-34.58 133.69,-37.1 145.41,-39.55"/>
<polygon fill="#004d40" stroke="#004d40" points="144.52,-42.94 155.03,-41.56 145.95,-36.08 144.52,-42.94"/>
</g>
<!-- sbom -->
<g id="node4" class="node">
<title>sbom</title>
<path fill="white" stroke="#004d40" d="M409.12,-98C409.12,-98 317.38,-98 317.38,-98 311.38,-98 305.38,-92 305.38,-86 305.38,-86 305.38,-74 305.38,-74 305.38,-68 311.38,-62 317.38,-62 317.38,-62 409.12,-62 409.12,-62 415.12,-62 421.12,-68 421.12,-74 421.12,-74 421.12,-86 421.12,-86 421.12,-92 415.12,-98 409.12,-98"/>
<text xml:space="preserve" text-anchor="middle" x="363.25" y="-77.6" font-family="Jost" font-size="12.00" fill="#004d40">planned CycloneDX</text>
</g>
<!-- plan&#45;&gt;sbom -->
<g id="edge3" class="edge">
<title>plan&#45;&gt;sbom</title>
<path fill="none" stroke="#004d40" d="M264.81,-62.52C274.18,-64.2 284.05,-65.97 293.77,-67.71"/>
<polygon fill="#004d40" stroke="#004d40" points="293.12,-71.15 303.58,-69.47 294.35,-64.26 293.12,-71.15"/>
</g>
<!-- profile -->
<g id="node5" class="node">
<title>profile</title>
<path fill="white" stroke="#004d40" d="M414,-44C414,-44 312.5,-44 312.5,-44 306.5,-44 300.5,-38 300.5,-32 300.5,-32 300.5,-20 300.5,-20 300.5,-14 306.5,-8 312.5,-8 312.5,-8 414,-8 414,-8 420,-8 426,-14 426,-20 426,-20 426,-32 426,-32 426,-38 420,-44 414,-44"/>
<text xml:space="preserve" text-anchor="middle" x="363.25" y="-23.6" font-family="Jost" font-size="12.00" fill="#004d40">profile materialization</text>
</g>
<!-- plan&#45;&gt;profile -->
<g id="edge4" class="edge">
<title>plan&#45;&gt;profile</title>
<path fill="none" stroke="#004d40" d="M264.81,-43.48C272.67,-42.07 280.87,-40.6 289.05,-39.13"/>
<polygon fill="#004d40" stroke="#004d40" points="289.43,-42.62 298.65,-37.41 288.19,-35.73 289.43,-42.62"/>
</g>
<!-- resolvo -->
<g id="node6" class="node">
<title>resolvo</title>
<path fill="#004d40" stroke="#004d40" d="M579.25,-44C579.25,-44 474,-44 474,-44 468,-44 462,-38 462,-32 462,-32 462,-20 462,-20 462,-14 468,-8 474,-8 474,-8 579.25,-8 579.25,-8 585.25,-8 591.25,-14 591.25,-20 591.25,-20 591.25,-32 591.25,-32 591.25,-38 585.25,-44 579.25,-44"/>
<text xml:space="preserve" text-anchor="middle" x="526.62" y="-23.6" font-family="Jost" font-size="12.00" fill="white">stack policy + Resolvo</text>
</g>
<!-- profile&#45;&gt;resolvo -->
<g id="edge5" class="edge">
<title>profile&#45;&gt;resolvo</title>
<path fill="none" stroke="#004d40" d="M426.18,-26C434.09,-26 442.26,-26 450.36,-26"/>
<polygon fill="#004d40" stroke="#004d40" points="450.21,-29.5 460.21,-26 450.21,-22.5 450.21,-29.5"/>
</g>
<!-- lock -->
<g id="node7" class="node">
<title>lock</title>
<path fill="white" stroke="#004d40" d="M689,-44C689,-44 639.25,-44 639.25,-44 633.25,-44 627.25,-38 627.25,-32 627.25,-32 627.25,-20 627.25,-20 627.25,-14 633.25,-8 639.25,-8 639.25,-8 689,-8 689,-8 695,-8 701,-14 701,-20 701,-20 701,-32 701,-32 701,-38 695,-44 689,-44"/>
<text xml:space="preserve" text-anchor="middle" x="664.12" y="-23.6" font-family="Jost" font-size="12.00" fill="#004d40">profile lock</text>
</g>
<!-- resolvo&#45;&gt;lock -->
<g id="edge6" class="edge">
<title>resolvo&#45;&gt;lock</title>
<path fill="none" stroke="#004d40" d="M591.41,-26C599.52,-26 607.71,-26 615.51,-26"/>
<polygon fill="#004d40" stroke="#004d40" points="615.47,-29.5 625.47,-26 615.47,-22.5 615.47,-29.5"/>
</g>
<!-- emit -->
<g id="node8" class="node">
<title>emit</title>
<path fill="white" stroke="#004d40" d="M837,-44C837,-44 749,-44 749,-44 743,-44 737,-38 737,-32 737,-32 737,-20 737,-20 737,-14 743,-8 749,-8 749,-8 837,-8 837,-8 843,-8 849,-14 849,-20 849,-20 849,-32 849,-32 849,-38 843,-44 837,-44"/>
<text xml:space="preserve" text-anchor="middle" x="793" y="-23.6" font-family="Jost" font-size="12.00" fill="#004d40">one .eb per profile</text>
</g>
<!-- lock&#45;&gt;emit -->
<g id="edge7" class="edge">
<title>lock&#45;&gt;emit</title>
<path fill="none" stroke="#004d40" d="M701.48,-26C709.03,-26 717.22,-26 725.47,-26"/>
<polygon fill="#004d40" stroke="#004d40" points="725.2,-29.5 735.2,-26 725.2,-22.5 725.2,-29.5"/>
</g>
<!-- target -->
<g id="node9" class="node">
<title>target</title>
<path fill="white" stroke="#004d40" d="M998.5,-48C998.5,-48 897,-48 897,-48 891,-48 885,-42 885,-36 885,-36 885,-16 885,-16 885,-10 891,-4 897,-4 897,-4 998.5,-4 998.5,-4 1004.5,-4 1010.5,-10 1010.5,-16 1010.5,-16 1010.5,-36 1010.5,-36 1010.5,-42 1004.5,-48 998.5,-48"/>
<text xml:space="preserve" text-anchor="middle" x="947.75" y="-32.6" font-family="Jost" font-size="12.00" fill="#004d40">transport + executor</text>
<text xml:space="preserve" text-anchor="middle" x="947.75" y="-14.6" font-family="Jost" font-size="12.00" fill="#004d40">+ runtime + workload</text>
</g>
<!-- emit&#45;&gt;target -->
<g id="edge8" class="edge">
<title>emit&#45;&gt;target</title>
<path fill="none" stroke="#004d40" d="M849.15,-26C856.99,-26 865.15,-26 873.27,-26"/>
<polygon fill="#004d40" stroke="#004d40" points="873.18,-29.5 883.18,-26 873.18,-22.5 873.18,-29.5"/>
</g>
<!-- campaign -->
<g id="node10" class="node">
<title>campaign</title>
<path fill="#ff655d" stroke="#004d40" d="M1133,-48C1133,-48 1058.5,-48 1058.5,-48 1052.5,-48 1046.5,-42 1046.5,-36 1046.5,-36 1046.5,-16 1046.5,-16 1046.5,-10 1052.5,-4 1058.5,-4 1058.5,-4 1133,-4 1133,-4 1139,-4 1145,-10 1145,-16 1145,-16 1145,-36 1145,-36 1145,-42 1139,-48 1133,-48"/>
<text xml:space="preserve" text-anchor="middle" x="1095.75" y="-32.6" font-family="Jost" font-size="12.00" fill="white">campaign state</text>
<text xml:space="preserve" text-anchor="middle" x="1095.75" y="-14.6" font-family="Jost" font-size="12.00" fill="white">+ typed findings</text>
</g>
<!-- target&#45;&gt;campaign -->
<g id="edge9" class="edge">
<title>target&#45;&gt;campaign</title>
<path fill="none" stroke="#004d40" d="M1010.67,-26C1018.6,-26 1026.72,-26 1034.63,-26"/>
<polygon fill="#004d40" stroke="#004d40" points="1034.51,-29.5 1044.51,-26 1034.51,-22.5 1034.51,-29.5"/>
</g>
</g>
</svg>
